<svg xmlns="http://www.w3.org/2000/svg" xmlns:xlink="http://www.w3.org/1999/xlink" viewBox="0 0 508.44 647.7"><defs><radialGradient id="B" gradientUnits="userSpaceOnUse" cy="148.5" cx="-16800" gradientTransform="matrix(-1.7958 0 0 -1.0098 -46975 298.39)" r="11.064"><stop stop-color="#b3b3b3" offset="0"/><stop stop-color="#b3b3b3" stop-opacity="0" offset="1"/></radialGradient><filter id="z" color-interpolation-filters="sRGB"><feGaussianBlur stdDeviation=".11"/></filter><linearGradient id="A" x1="-16605" gradientUnits="userSpaceOnUse" y1="151.68" gradientTransform="matrix(4.9233 0 0 3.8527 81812 -114.71)" x2="-16600" y2="149.83"><stop stop-color="#c1c1c1" offset="0"/><stop stop-color="#c1c1c1" stop-opacity="0" offset="1"/></linearGradient><filter id="y" color-interpolation-filters="sRGB"><feGaussianBlur stdDeviation=".149"/></filter><linearGradient id="x" x1="-16582" gradientUnits="userSpaceOnUse" y1="162.78" gradientTransform="matrix(4.9233 0 0 3.8527 81980 -114.71)" x2="-16661" y2="162.78"><stop stop-color="#999" offset="0"/><stop stop-color="#999" stop-opacity="0" offset="1"/></linearGradient><filter id="w" color-interpolation-filters="sRGB"><feGaussianBlur stdDeviation=".301"/></filter><filter id="v" color-interpolation-filters="sRGB"><feGaussianBlur stdDeviation=".214"/></filter><linearGradient id="u" x1="-16667" gradientUnits="userSpaceOnUse" y1="118.59" gradientTransform="matrix(4.9233 0 0 3.8527 81980 -114.71)" x2="-16669" y2="116.95"><stop stop-color="#333" offset="0"/><stop stop-color="#333" stop-opacity="0" offset="1"/></linearGradient><linearGradient id="t" x1="-16849" gradientUnits="userSpaceOnUse" y1="117.05" gradientTransform="matrix(5.1453 0 0 3.9074 86605 -123.62)" x2="-16849" y2="117.34"><stop stop-color="#cc5750" offset="0"/><stop stop-color="#cc5750" stop-opacity="0" offset="1"/></linearGradient><linearGradient id="s" x1="-16808" xlink:href="#a" gradientUnits="userSpaceOnUse" y1="75.55" gradientTransform="matrix(3.3362 .2078 0 2.492 56206 3690.7)" x2="-16808" y2="64.675"/><linearGradient id="a"><stop stop-color="#1a1a1a" offset="0"/><stop stop-color="#b09b86" stop-opacity="0" offset="1"/></linearGradient><linearGradient id="r" x1="-16623" gradientUnits="userSpaceOnUse" y1="133.24" gradientTransform="matrix(4.9233 0 0 3.8527 81980 -114.71)" x2="-16627" y2="134.93"><stop stop-color="#666" offset="0"/><stop offset="1"/></linearGradient><linearGradient id="q" x1="-16808" xlink:href="#a" gradientUnits="userSpaceOnUse" y1="75.55" gradientTransform="matrix(3.7317 .1533 0 2.7874 62723 2765.7)" x2="-16808" y2="64.675"/><linearGradient id="p" x1="-16829" xlink:href="#b" gradientUnits="userSpaceOnUse" y1="112.57" gradientTransform="matrix(6.7393 0 0 4.772 113420 -125.9)" x2="-16833" y2="112.44"/><linearGradient id="b"><stop stop-color="#7d6666" offset="0"/><stop stop-color="#500" offset="1"/></linearGradient><linearGradient id="o" x1="-16808" xlink:href="#a" gradientUnits="userSpaceOnUse" y1="75.55" gradientTransform="matrix(3.7317 .1533 0 2.7874 62754 2764.6)" x2="-16808" y2="64.675"/><linearGradient id="n" x1="-16829" xlink:href="#b" gradientUnits="userSpaceOnUse" y1="112.57" gradientTransform="matrix(6.7393 0 0 4.772 113450 -126.97)" x2="-16833" y2="112.44"/><linearGradient id="m" x1="-16808" xlink:href="#a" gradientUnits="userSpaceOnUse" y1="75.55" gradientTransform="matrix(2.7262 .1238 0 2.2503 45856 2218.7)" x2="-16808" y2="64.675"/><linearGradient id="l" x1="-16829" xlink:href="#b" gradientUnits="userSpaceOnUse" y1="112.57" gradientTransform="matrix(4.9233 0 0 3.8527 82895 -115.74)" x2="-16833" y2="112.44"/><linearGradient id="k" x1="-16808" xlink:href="#c" gradientUnits="userSpaceOnUse" y1="80.675" gradientTransform="matrix(-4.4447 0 0 3.8527 -74684 -114.71)" x2="-16804" y2="80.643"/><linearGradient id="c"><stop stop-color="#c1726b" offset="0"/><stop stop-color="#c1726b" stop-opacity="0" offset="1"/></linearGradient><linearGradient id="j" x1="-16808" xlink:href="#c" gradientUnits="userSpaceOnUse" y1="80.675" gradientTransform="matrix(4.9233 0 0 3.8527 82777 -114.71)" x2="-16804" y2="80.643"/><linearGradient id="i" x1="-16808" gradientUnits="userSpaceOnUse" y1="75.55" gradientTransform="matrix(4.9233 0 0 3.8527 82777 -114.71)" x2="-16808" y2="64.675"><stop stop-color="#e6e6e6" offset="0"/><stop stop-color="#b09b86" stop-opacity="0" offset="1"/></linearGradient><linearGradient id="h" x1="-16808" xlink:href="#a" gradientUnits="userSpaceOnUse" y1="75.55" gradientTransform="matrix(2.7262 .1238 0 2.2503 45827 2219.7)" x2="-16808" y2="64.675"/><linearGradient id="g" x1="-16829" xlink:href="#b" gradientUnits="userSpaceOnUse" y1="112.57" gradientTransform="matrix(4.9233 0 0 3.8527 82866 -114.71)" x2="-16833" y2="112.44"/><linearGradient id="f" x1="-16772" gradientUnits="userSpaceOnUse" y1="36.78" gradientTransform="matrix(4.9233 0 0 3.8527 82669 -114.71)" x2="-16796" y2="33.003"><stop stop-color="#343a4a" offset="0"/><stop stop-color="#343a4a" stop-opacity="0" offset="1"/></linearGradient><linearGradient id="e" x1="-16784" gradientUnits="userSpaceOnUse" y1="38.8" gradientTransform="matrix(4.9233 0 0 3.8527 82669 -114.71)" x2="-16811" y2="35.539"><stop stop-color="#424654" offset="0"/><stop stop-color="#434755" offset="1"/></linearGradient><linearGradient id="d" x1="-16823" gradientUnits="userSpaceOnUse" y1="20.517" gradientTransform="matrix(4.9233 0 0 3.8527 82866 -114.71)" x2="-16822" y2="51.011"><stop stop-color="#e5d7e9" offset="0"/><stop stop-color="#e5d7e9" stop-opacity="0" offset="1"/></linearGradient></defs><path fill="#fff" d="M494.62 628.24l-71.36 2.725-80.95 12.94-329.85-2.043 1.752-129.4L.277 501.565l85.296-89.218v-166.18L68.17 235.95l70.495-56.527 35.674-130.08 50.487 142.34 5.76 13.077 59.694 55.983-22.16 9.15 11.383 135.56 22.77 10.113 57.243 48.158 136-8.186 12.923 73.2-6.157 1.445 4.927 87.648-12.585 10.406z"/><path fill="#807980" d="M290.58 261.46l-60.93-52.49-163.08 26.49 73.85-55.867 33.855-130.99h4.914l50.46 154.59 60.93 58.27z"/><path opacity=".413" fill="url(#d)" d="M37.12-58.827l4.347-.337 20.447 118.84-35.687 4.544L37.12-58.83z" transform="translate(136.36 119.06)"/><path opacity=".27" fill="url(#e)" d="M28.028 61.38L4.08 60.54 35.457-59.33l1.7 1.182-9.13 119.53z" transform="translate(136.36 119.06)"/><path fill="url(#f)" d="M61.914 58.847c0-1.686-21.42-122.62-20.498-118.05 0 .33 4.78-.947 5.163.166C52.43-41.953 93.29 84.373 93.29 84.373L61.914 58.845z" transform="translate(136.36 119.06)"/><path fill="#595a65" d="M171.423 60.08l2.916-11.316c-12.676-6.776-4.318-13.145-.638-13.845l.127-19.023-11.383-1.083 11.07-4.214L175.064.005l2.152 10.595 12.617 3.49-12.776 1.807 1.387 19.022c3.19-.56 12.452 7.2.637 13.604l3.534 11.557h-11.217z"/><path fill="url(#g)" d="M16.786 336.72l-23.61 1.115v-35.802c6.028-7.7 11.082-20.32 22.65-.37l.96 35.05z" transform="translate(136.36 119.06)"/><path fill="#7c3839" d="M151.95 423.25l-22.414.23-.19-4.197c7.065-5.497 9.898-18.24 22.833-.083l-.32 4.05z"/><path fill="url(#h)" d="M15.59 304.52l-22.414-.096.127-4.085c7.053-4.01 9.033-14.04 21.975-.4l.32 4.575z" transform="translate(136.36 119.06)"/><path fill="#7d3539" d="M183.747 341.51l-42.64 3.746V283.96c10.9-13.64 20.022-35.65 40.91-2.38l1.73 59.934z"/><path fill="#333" d="M181.595 285.91l-40.487 2.136-.318-7.168c12.744-9.96 17.863-31.998 41.206-1.92l-.382 6.952z"/><path fill="url(#i)" d="M45.235 167.4l-40.487 1.586.382-7.01c12.75-7.4 16.33-24.73 39.68-2.39l.445 7.813z" transform="translate(136.36 119.06)"/><path opacity=".339" fill="url(#j)" d="M45.904 221.86l-20.307 1.926-1.84-54.9 20.918-.723 1.23 53.697z" transform="translate(136.36 119.06)"/><path opacity=".439" fill="url(#k)" d="M3.45 225.72l20.79-1.686-1.718-55.382-17.66-.483-1.412 57.548z" transform="translate(136.36 119.06)"/><path fill="url(#l)" d="M46.375 335.7l-23.617 1.116v-35.803c6.04-7.693 11.083-20.32 22.656-.363l.96 35.05z" transform="translate(136.36 119.06)"/><path fill="#7c3839" d="M181.538 422.23l-22.42.23-.192-4.197c7.06-5.497 9.893-18.24 22.822-.083l-.318 4.05z"/><path fill="url(#m)" d="M45.178 303.49l-22.42-.09.126-4.085c7.06-4 9.04-14.032 21.975-.395l.318 4.575z" transform="translate(136.36 119.06)"/><path fill="url(#n)" d="M47.483 432.2l-32.313 1.383v-44.347c8.256-9.53 15.176-25.17 31.014-.452l1.3 43.416z" transform="translate(136.36 119.06)"/><path fill="#7c3839" d="M182.213 510.97l-30.683.286-.318-5.197c9.67-6.81 13.534-22.595 31.244-.11l-.382 5.017z"/><path fill="url(#o)" d="M45.853 392.31l-30.683-.108.318-5.06c9.657-4.955 12.382-17.38 30.072-.498l.446 5.668z" transform="translate(136.36 119.06)"/><path fill="url(#p)" d="M16.175 433.28l-32.332 1.382v-44.348c8.27-9.53 15.176-25.17 31.008-.452l1.325 43.416z" transform="translate(136.36 119.06)"/><path fill="#7c3839" d="M150.893 512.05l-30.69.286-.255-5.197c9.664-6.81 13.547-22.595 31.25-.11l-.382 5.017z"/><path fill="url(#q)" d="M14.533 393.38l-30.69-.108.318-5.06c9.67-4.956 12.383-17.382 30.086-.498l.382 5.667z" transform="translate(136.36 119.06)"/><path opacity=".804" fill="url(#r)" d="M146.88 416.53l-28.9.624v-39.647c7.396-8.362 13.565-22.214 27.73.184l1.17 38.84z" transform="translate(136.36 119.06)"/><path opacity=".804" fill="#2e2e2e" d="M281.78 499.54l-27.443-.33-.127-4.65c8.638-5.904 12.108-19.943 27.933.502l-.382 4.477z"/><path opacity=".804" fill="url(#s)" d="M145.42 380.83l-27.443-.682.382-4.52c8.625-4.244 11.05-15.303 26.882.135l.382 5.075z" transform="translate(136.36 119.06)"/><path fill="#4a3245" d="M259.81 352.96l-13.534-6.74-1.24-55.383c2.13-10.846 3.48-26.805 13.54 14.447l1.234 47.676z"/><path fill="url(#t)" d="M-49.043 308.13l-76.86 83.58-10.46-9.326 85.5-89.105 1.82 14.85z" transform="translate(136.36 119.06)"/><path opacity=".057" fill="url(#u)" d="M-49.043 308.13l-76.206 82.898-11.114-8.644 85.5-89.105 1.82 14.85z" transform="translate(136.36 119.06)"/><path opacity=".139" fill="#a1a8b5" d="M225.75 221.93c6.257 20.493-5.08 43.008 14.978 59.516l32 24.08-5.525-44.306-41.454-39.29z"/><path d="M-16633 102.99l22.25 24 19 7.625 12.5-.875.375-16.625-27.25 1.625-16.625-15.25.75 5.375-11-5.875z" transform="matrix(4.9595 0 0 3.8525 82717.36 4.36)" filter="url(#v)" stroke="maroon" stroke-width=".3" fill="#dc3d2d"/><path d="M-16606 118.86l14.5 15.625" transform="matrix(4.9595 0 0 3.8525 82717.36 4.36)" filter="url(#w)" stroke="maroon" stroke-width=".3" fill="none"/><path fill="#ccc" d="M12.26 642.88l329.85 2.043s83.113-13.62 84.863-13.62c1.738 0 67.013-2.043 67.013-2.043l13.93-9.535-1.745-18.048-13.482 10.897-67.02.68-83.985 4.768-329.02 2.46-.382 22.4z"/><path opacity=".465" fill="url(#x)" d="M-124.1 523.82l329.85 2.043-.446-26.9-329.02 2.46-.382 22.398z" transform="translate(136.36 119.06)"/><path stroke="maroon" stroke-width="4.355" fill="none" d="M335.62 493.42l-4.424 7.39 6.155 144.71M429.62 522.7l-5.29 10.113 4.354 98.22"/><path opacity=".857" fill="#edeff1" d="M82.765 244.29l3.138 1.958-.127 8.258 142.29-20.812-1.8-11.283-143.44 21.88z"/><path opacity=".417" d="M-16635-230.61l-2.813-2.125 33.07-6.828 11.965 13.445-2.942 1.57-9.938-11.55-29.342 5.487z" transform="matrix(4.9233 0 0 3.8527 81983.36 1132.36)" filter="url(#y)" stroke="#000" stroke-width=".3" fill="#e6e6e6"/><path d="M-16796 165.83l-.177-14.85c-5.36-11.104-15.816-10.37-20.86.178l-.176 14.496 21.213.177z" transform="matrix(5.717 0 0 4.02 96236.36 -23.04)" filter="url(#z)" stroke="#2b0000" stroke-width=".3" fill="#fff"/><path fill="url(#A)" d="M34.68 434.72c36.038 11.16 39.367 16.135 48.974 27.907l2.26 57.332-9.848 5.176-1.07-58.873c-6.59-14.61-26.425-26.87-40.315-31.55z" transform="translate(136.36 119.06)"/><path opacity=".652" d="M-16796 165.83l-.177-14.85c-5.36-11.104-15.816-10.37-20.86.178l-.176 14.496 21.213.177z" transform="matrix(5.717 0 0 4.02 96236.36 -23.04)" filter="url(#z)" stroke="#2b0000" stroke-width=".3" fill="url(#B)"/><path fill="#312b2c" d="M186.975 643.04l-.637-58.164c-3.673 1.124-43.352-5.205-73.462 1.187l-.636 56.53 74.73.453z"/><path opacity=".98" fill="#2e0724" d="M146.003 561.15h6.186v14.324h-6.187z"/><path opacity=".98" fill="#2e0724" d="M158.262 565.89v4.84h-18.305v-4.84z"/><path opacity=".565" fill="#523c38" d="M153.477 643.04v-58.164c-.382 1.124-4.482-5.205-7.595 1.187v56.53l7.722.453z"/></svg>