<svg xmlns="http://www.w3.org/2000/svg" viewBox="0 0 50 50"><path fill="none" d="M1 1h48v48H1z"/><path d="M7.523 28.89h-.907c-.12 0-.22.1-.22.22v2.16c0 .12.1.22.22.22h.907c.122 0 .22-.1.22-.22v-2.16c0-.12-.098-.22-.22-.22zm2.705 0H9.32c-.12 0-.22.1-.22.22v2.16c0 .12.1.22.22.22h.908c.12 0 .22-.1.22-.22v-2.16c0-.12-.1-.22-.22-.22zm29.56 2.6h.908c.12 0 .22-.1.22-.22v-2.16c0-.12-.1-.22-.22-.22h-.907c-.122 0-.22.1-.22.22v2.16c0 .12.098.22.22.22zm-26.856-2.6h-.906c-.12 0-.22.1-.22.22v2.16c0 .12.1.22.22.22h.906c.12 0 .22-.1.22-.22v-2.16c0-.12-.1-.22-.22-.22zm29.56 2.6h.908c.12 0 .22-.1.22-.22v-2.16c0-.12-.1-.22-.22-.22h-.907c-.12 0-.22.1-.22.22v2.16c0 .12.1.22.22.22zM31.38 8.423v-.34c0-.122-.1-.22-.22-.22h-4.57v.78h4.57c.12 0 .22-.1.22-.22zm5.704 23.067h.907c.122 0 .22-.1.22-.22v-2.16c0-.12-.098-.22-.22-.22h-.906c-.12 0-.22.1-.22.22v2.16c0 .12.1.22.22.22zm-6.002-3.347c.12 0 .22-.1.22-.22v-2.16c0-.12-.1-.22-.22-.22h-2.458c-.12 0-.22.1-.22.22v2.16c0 .12.1.22.22.22h2.458zm.297-16.523v-.34c0-.12-.1-.22-.22-.22h-4.57v.78h4.57c.12 0 .22-.1.22-.22zm0-1.316v-.906c0-.12-.1-.22-.22-.22h-4.57v1.346h4.57c.12 0 .22-.1.22-.22zm15.207 14.563c.12 0 .22-.098.22-.22v-.906c0-.12-.1-.218-.22-.218h-11.73c-.044-.137-.102-.267-.172-.39.02.005.04.008.06.008.055 0 .108-.02.15-.06l.64-.642c.087-.086.087-.225 0-.31l-.07-.072.002-.002-8.187-8.19c-.204-.218-.438-.396-.69-.537v1.848l7.036 7.04c-.238-.093-.494-.146-.764-.146l-1.46-.002-4.635-4.636c-.055-.06-.115-.112-.177-.163v1.988l4.223 4.227h2.05c.376 0 .68.304.68.68V37.11c-.002.377-.305.68-.68.682H26.03V8.082c0-.12-.1-.22-.22-.22h-.906c-.12 0-.22.1-.22.22v4.9c-.643.092-1.268.384-1.762.88l-.048.048-8.21 8.218c-.085.085-.085.225 0 .31l.64.64c.01.01.02.014.03.02-.078.133-.144.274-.192.424H3.412c-.12 0-.218.098-.218.22v.906c0 .12.098.22.22.22H15.04v1.41c-.06-.006-.117-.018-.178-.018H4.795c-.883 0-1.597.716-1.598 1.597v7.608c0 .882.715 1.597 1.598 1.597h10.067c.06 0 .118-.01.178-.017v.066c0 1.16.938 2.098 2.097 2.098h5.934v-1.416h-5.933c-.377 0-.68-.305-.68-.68v-1.614l.002-.033v-7.608c0-.01-.004-.018-.004-.027v-3.664c0-.377.305-.68.682-.68h2.65l.207-.208 4.69-4.695v22.21H21.4c-.12 0-.22.098-.22.218v.908c0 .12.1.22.22.22h7.623c.12 0 .22-.1.22-.22v-.907c0-.12-.1-.218-.22-.218H26.03v-1.584h6.833c1.158 0 2.097-.94 2.097-2.097v-.066c.06.007.12.018.183.018H45.21c.882 0 1.597-.714 1.597-1.597v-7.608c0-.882-.714-1.597-1.597-1.597H35.142c-.062 0-.122.012-.183.02v-1.413h11.627zM15.04 35.48c-.01.092-.084.166-.178.166H4.795c-.1 0-.182-.082-.182-.18v-7.61c0-.1.082-.18.182-.18h10.067c.094 0 .17.073.178.166v7.64zm9.644-18.556c-.31.098-.607.262-.852.508L19.2 22.07h-2.063c-.16 0-.315.018-.465.052l7.252-7.26c.22-.22.484-.36.76-.434v2.496zM34.96 27.857c0-.1.082-.18.182-.18H45.21c.1 0 .18.08.18.18v7.608c0 .1-.08.18-.18.18H35.14c-.1 0-.18-.08-.18-.18v-7.608zm-15.92-2.313c-.122 0-.22.1-.22.22v2.16c0 .12.098.22.22.22h2.456c.12 0 .22-.1.22-.22v-2.16c0-.12-.1-.22-.22-.22H19.04z"/></svg>