<?xml version="1.0" encoding="UTF-8" standalone="no"?>
<svg
   xmlns:dc="http://purl.org/dc/elements/1.1/"
   xmlns:cc="http://creativecommons.org/ns#"
   xmlns:rdf="http://www.w3.org/1999/02/22-rdf-syntax-ns#"
   xmlns:svg="http://www.w3.org/2000/svg"
   xmlns="http://www.w3.org/2000/svg"
   xmlns:sodipodi="http://sodipodi.sourceforge.net/DTD/sodipodi-0.dtd"
   xmlns:inkscape="http://www.inkscape.org/namespaces/inkscape"
   enable-background="new 0 0 90 90"
   xml:space="preserve"
   height="98.941177"
   width="76.224083"
   version="1.1"
   y="0px"
   x="0px"
   viewBox="0 0 76.224082 98.94078"
   id="svg2"
   inkscape:version="0.91 r13725"
   sodipodi:docname="dpc.svg"><metadata
     id="metadata30"><rdf:RDF><cc:Work
         rdf:about=""><dc:format>image/svg+xml</dc:format><dc:type
           rdf:resource="http://purl.org/dc/dcmitype/StillImage" /><dc:title></dc:title></cc:Work></rdf:RDF></metadata><defs
     id="defs28" /><sodipodi:namedview
     pagecolor="#ffffff"
     bordercolor="#666666"
     borderopacity="1"
     objecttolerance="10"
     gridtolerance="10"
     guidetolerance="10"
     inkscape:pageopacity="0"
     inkscape:pageshadow="2"
     inkscape:window-width="1920"
     inkscape:window-height="1040"
     id="namedview26"
     showgrid="false"
     inkscape:zoom="6.8745886"
     inkscape:cx="32.413199"
     inkscape:cy="41.078404"
     inkscape:window-x="1920"
     inkscape:window-y="0"
     inkscape:window-maximized="1"
     inkscape:current-layer="svg2"
     fit-margin-left="2"
     fit-margin-top="2"
     fit-margin-bottom="2"
     fit-margin-right="2" /><g
     transform="matrix(0.50944,0,0,0.50944,14.836013,42.40476)"
     id="g4"><path
       d="m 45.1,24.1 c 0,0 -5.4,5.2 -3.6,13.3 0,0 -3.4,-0.4 -4.6,2.3 -0.8,1.9 -0.2,4.2 1.6,5.4 0.9,0.6 2.2,0.9 4,0.4 0,0 -1.4,12.4 -15.6,3.2 0,0 2.7,-3.8 0.2,-6.2 -2.2,-2.1 -4.1,-0.3 -4.8,1.7 -0.5,1.5 -0.3,3.4 2.7,5 0,0 -1.4,15.5 -12.4,2.8 0,0 0.7,-0.7 1.2,-1.7 1.4,-2.9 -2.5,-5.5 -4.6,-3 0,0 0,0.1 -0.1,0.1 0,0 -2.5,-2.9 -5.2,-2.6 -0.7,0.1 -1,0.9 -0.6,1.4 3,3.4 4.9,8.5259 13.1,26.526 l 28.7,0"
       id="path6"
       inkscape:connector-curvature="0" /><circle
       cx="24.9"
       cy="45.5"
       r="3.8"
       id="circle8" /><circle
       cx="40.799999"
       cy="41.5"
       r="4.5"
       id="circle10" /><path
       d="m 10.5,46 c -1.8,0 -3.2,1.2 -3.7,2.8 0.5,0 1.1,0.2 1.4,0.5 0.3,0.3 0.5,0.6 0.8,0.9 0.1,0.1 0.2,0.3 0.3,0.4 l 0,0.1 c 0.1,0.1 0.1,0.1 0,0 l 0.1,0.1 c 0.1,0.1 0.2,0.2 0.3,0.2 0.3,0.2 0.7,0.5 0.9,0.8 0.4,0.5 0.6,1.2 0.4,1.8 1.8,-0.3 3.2,-1.9 3.2,-3.8 C 14.3,47.7 12.6,46 10.5,46 Z"
       id="path12"
       inkscape:connector-curvature="0" /><path
       d="m 44.9,24.1 c 0,0 5.4,5.2 3.6,13.3 0,0 3.4,-0.4 4.6,2.3 0.8,1.9 0.2,4.2 -1.6,5.4 -0.9,0.6 -2.2,0.9 -4,0.4 0,0 1.4,12.4 15.6,3.2 0,0 -2.7,-3.8 -0.2,-6.2 2.2,-2.1 4.1,-0.3 4.8,1.7 0.5,1.5 0.3,3.4 -2.7,5 0,0 1.4,15.5 12.4,2.8 0,0 -0.7,-0.7 -1.2,-1.7 -1.4,-2.9 2.5,-5.5 4.6,-3 0,0 0,0.1 0.1,0.1 0,0 2.5,-2.9 5.2,-2.6 0.7,0.1 1,0.9 0.6,1.4 -3,3.4 -4.9,8.5259 -13.1,26.526 l -28.7,0"
       id="path14"
       inkscape:connector-curvature="0" /><circle
       cx="65.099998"
       cy="45.5"
       r="3.8"
       id="circle16" /><circle
       cx="49.200001"
       cy="41.5"
       r="4.5"
       id="circle18" /><path
       d="m 79.5,46 c 1.8,0 3.2,1.2 3.7,2.8 -0.5,0 -1.1,0.2 -1.4,0.5 -0.3,0.3 -0.5,0.6 -0.8,0.9 -0.1,0.1 -0.2,0.3 -0.3,0.4 l 0,0.1 c -0.1,0.1 -0.1,0.1 0,0 l -0.1,0.1 C 80.5,50.9 80.4,50.9 80.3,51 80,51.2 79.6,51.5 79.4,51.8 79,52.3 78.8,53 79,53.6 77.2,53.3 75.8,51.7 75.8,49.8 75.7,47.7 77.4,46 79.5,46 Z"
       id="path20"
       inkscape:connector-curvature="0" /></g><path
     style="fill:#000000;fill-opacity:1;stroke:none;stroke-width:3.5999999;stroke-opacity:1"
     d="M 38.111025,1.9998055 C 20.05509,1.9998055 2,5.1598256 2,5.1598256 L 2,52.217841 c 0,0 2.256538,32.27833 36.111025,44.723145 33.85668,-12.444815 36.113059,-44.723145 36.113059,-44.723145 l 0,-47.0580154 c 2e-6,0 -18.059207,-3.1600201 -36.113059,-3.1600201 z m 0,5.6415829 c 15.415475,0 30.836173,2.7831006 30.836173,2.7831006 l 0,41.467366 c 0,0 -1.927269,28.443538 -30.836173,39.409585 C 9.2039939,80.335393 7.276894,51.891855 7.276894,51.891855 l 0,-41.467366 c 0,0 15.416862,-2.7831006 30.834131,-2.7831006 z"
     id="path22"
     inkscape:connector-curvature="0" /><path
     d="m 43.750013,29.12576 9.2922,1.8581 0,-10.188 -9.604,1.9207 c -0.61765,-1.002 -1.4912,-1.8137 -2.5308,-2.3732 l 1.9473,-9.7351 -10.188,0 1.9473,9.7351 c -1.04,0.55941 -1.9132,1.3712 -2.5308,2.3736 l -9.604,-1.9207 0,10.188 9.2922,-1.8581 c 0.62796,1.286 1.6509,2.3276 2.9171,2.988 l -2.0217,16.151 10.188,0 -2.0217,-16.152 c 1.2662,-0.66083 2.2892,-1.7024 2.9167,-2.988 z"
     id="path24"
     inkscape:connector-curvature="0" /></svg>