<svg xmlns:rdf="http://www.w3.org/1999/02/22-rdf-syntax-ns#" xmlns="http://www.w3.org/2000/svg" enable-background="new 0 0 100 100" xml:space="preserve" height="83.3" width="83.804" version="1.1" y="0px" x="0px" xmlns:cc="http://creativecommons.org/ns#" xmlns:dc="http://purl.org/dc/elements/1.1/" viewBox="0 0 83.803978 83.300003"><g transform="translate(-8 -8.3)"><rect y="8.3" x="23.4" height="8.6" width="4"/><rect y="8.3" x="72.6" height="8.6" width="4"/><path d="m87.9 11.9h-7.4v5 4h-4-4-4v-4-5h-37.1v5 4h-4-4-4v-4-5h-7.4c-2.2 0-4 1.8-4 4v71.7c0 2.2 1.8 4 4 4h75.8c2.2 0 4-1.8 4-4v-71.7c0.1-2.2-1.7-4-3.9-4zm0 75.8h-75.8v-51.8h75.8v51.8z"/></g></svg>
