<svg xmlns:rdf="http://www.w3.org/1999/02/22-rdf-syntax-ns#" xmlns="http://www.w3.org/2000/svg" enable-background="new -13.05 3.309 100 77.447" xml:space="preserve" height="77.446" width="100" version="1.1" y="0px" x="0px" xmlns:cc="http://creativecommons.org/ns#" xmlns:dc="http://purl.org/dc/elements/1.1/" viewBox="-13.05 3.309 100 77.446002"><g transform="translate(-.0010002 1.5259e-8)"><path d="m86.951 3.309v65.842c0 6.129-5.345 11.604-10.952 11.604h-74.84c-9.257 0-14.208-4.825-14.208-16.559v-48.108h13.82v-12.779h86.18zm-86.18 19.818h-6.782v41.07c0 5.998 1.432 8.866 3.257 8.866 2.219 0 3.524-2.868 3.524-8.866v-41.07zm79.141-12.777h-72.102v53.847c0 4.173-0.782 7.17-1.957 9.517h70.146c2.345 0 3.913-2.737 3.913-4.562v-58.802zm-44.331 24.772h-16.558v-2.347h16.558v2.347zm0 7.692h-16.558v-2.347h16.558v2.347zm0 7.432h-16.558v-2.347h16.558v2.347zm0 7.172h-16.558v-2.347h16.558v2.347zm0 7.43h-16.558v-2.345h16.558v2.345zm-14.082-44.197h43.418v4.563h-43.418v-4.563zm20.602 12.124h27.767v26.468h-27.767v-26.468z"/></g></svg>
