<svg xmlns:rdf="http://www.w3.org/1999/02/22-rdf-syntax-ns#" xmlns="http://www.w3.org/2000/svg" enable-background="new 0 0 48 48" xml:space="preserve" height="48" width="44.879" version="1.1" y="0px" x="0px" xmlns:cc="http://creativecommons.org/ns#" xmlns:dc="http://purl.org/dc/elements/1.1/" viewBox="0 0 44.879002 48"><g transform="translate(-1.56)"><path d="m45.728 28.832-9.166-2.688v-9.835c0-0.44-0.29-0.826-0.711-0.95l-10.862-3.185v-6.654h3.259c0.547 0 0.989-0.443 0.989-0.99s-0.442-0.99-0.989-0.99h-3.259v-2.55c0-0.547-0.443-0.99-0.99-0.99s-0.99 0.443-0.99 0.99v2.55h-3.257c-0.547 0-0.99 0.443-0.99 0.99 0 0.546 0.442 0.99 0.99 0.99h3.257v6.607l-10.863 3.233c-0.419 0.126-0.708 0.511-0.708 0.949v9.796l-9.17 2.728c-0.419 0.126-0.708 0.512-0.708 0.949v17.229c0 0.546 0.442 0.989 0.99 0.989h14.638v-8.876c0-3.677 3.055-6.667 6.81-6.667 3.756 0 6.812 2.99 6.812 6.667v8.876h14.639c0.547 0 0.99-0.443 0.99-0.989v-17.23c0-0.438-0.29-0.825-0.711-0.949zm-21.729-0.821c-2.821 0-5.117-2.296-5.117-5.117s2.295-5.118 5.117-5.118 5.118 2.296 5.118 5.118-2.296 5.117-5.118 5.117z"/></g></svg>
