<svg xmlns:rdf="http://www.w3.org/1999/02/22-rdf-syntax-ns#" xmlns="http://www.w3.org/2000/svg" enable-background="new 0 0 48 48" xml:space="preserve" version="1.1" y="0px" x="0px" xmlns:cc="http://creativecommons.org/ns#" xmlns:dc="http://purl.org/dc/elements/1.1/" viewBox="0 0 48 48"><path d="m47.011 44.229h-46.021c-0.547 0-0.99-0.442-0.99-0.989s0.443-0.99 0.99-0.99h46.021c0.547 0 0.989 0.443 0.989 0.99s-0.442 0.989-0.989 0.989z"/><path d="m47.011 48h-46.021c-0.547 0-0.99-0.442-0.99-0.989 0-0.548 0.443-0.99 0.99-0.99h46.021c0.547 0 0.989 0.442 0.989 0.99 0 0.547-0.442 0.989-0.989 0.989z"/><path d="m47.011 22.247h-12.016v-6.686h0.815c0.008 0.001 0.016 0.001 0.02 0 0.547 0 0.989-0.443 0.989-0.99 0-0.446-0.295-0.823-0.7-0.947l-11.709-5.328c-0.261-0.118-0.559-0.118-0.819 0l-11.811 5.374c-0.424 0.193-0.656 0.655-0.558 1.111 0.098 0.455 0.501 0.78 0.967 0.78h0.816v6.686h-12.015c-0.547 0-0.99 0.443-0.99 0.99v16.606c0 0.547 0.443 0.989 0.99 0.989h18.278v-10.302c0-0.579 0.443-1.048 0.99-1.048h7.484c0.547 0 0.99 0.469 0.99 1.048v10.302h18.278c0.547 0 0.989-0.442 0.989-0.989v-16.607c0.001-0.547-0.441-0.989-0.988-0.989zm-40.494 14.774c0 0.547-0.443 0.99-0.99 0.99s-0.99-0.443-0.99-0.99v-2.811c0-0.547 0.443-0.989 0.99-0.989s0.99 0.442 0.99 0.989v2.811zm0-6.585c0 0.548-0.443 0.99-0.99 0.99s-0.99-0.442-0.99-0.99v-2.812c0-0.547 0.443-0.989 0.99-0.989s0.99 0.442 0.99 0.989v2.812zm4.334 6.585c0 0.547-0.443 0.99-0.99 0.99s-0.99-0.443-0.99-0.99v-2.811c0-0.547 0.442-0.989 0.99-0.989 0.547 0 0.99 0.442 0.99 0.989v2.811zm0-6.585c0 0.548-0.443 0.99-0.99 0.99s-0.99-0.442-0.99-0.99v-2.812c0-0.547 0.442-0.989 0.99-0.989 0.547 0 0.99 0.442 0.99 0.989v2.812zm4.333 6.585c0 0.547-0.442 0.99-0.99 0.99-0.547 0-0.99-0.443-0.99-0.99v-2.811c0-0.547 0.443-0.989 0.99-0.989s0.99 0.442 0.99 0.989v2.811zm0-6.585c0 0.548-0.442 0.99-0.99 0.99-0.547 0-0.99-0.442-0.99-0.99v-2.812c0-0.547 0.443-0.989 0.99-0.989s0.99 0.442 0.99 0.989v2.812zm5.472-5.402c0 0.547-0.442 0.989-0.99 0.989-0.547 0-0.989-0.442-0.989-0.989v-2.811c0-0.547 0.442-0.99 0.989-0.99s0.99 0.443 0.99 0.99v2.811zm0-6.584c0 0.547-0.442 0.99-0.99 0.99-0.547 0-0.989-0.442-0.989-0.99v-2.813c0-0.547 0.442-0.989 0.989-0.989s0.99 0.442 0.99 0.989v2.813zm4.334 6.584c0 0.547-0.443 0.989-0.99 0.989s-0.99-0.442-0.99-0.989v-2.811c0-0.547 0.443-0.99 0.99-0.99s0.99 0.443 0.99 0.99v2.811zm0-6.584c0 0.547-0.443 0.99-0.99 0.99s-0.99-0.442-0.99-0.99v-2.813c0-0.547 0.443-0.989 0.99-0.989s0.99 0.442 0.99 0.989v2.813zm4.333 6.584c0 0.547-0.442 0.989-0.989 0.989s-0.99-0.442-0.99-0.989v-2.811c0-0.547 0.443-0.99 0.99-0.99s0.989 0.443 0.989 0.99v2.811zm0-6.584c0 0.547-0.442 0.99-0.989 0.99s-0.99-0.442-0.99-0.99v-2.813c0-0.547 0.443-0.989 0.99-0.989s0.989 0.442 0.989 0.989v2.813zm5.472 18.571c0 0.547-0.442 0.99-0.99 0.99-0.547 0-0.989-0.443-0.989-0.99v-2.811c0-0.547 0.442-0.989 0.989-0.989 0.548 0 0.99 0.442 0.99 0.989v2.811zm0-6.585c0 0.548-0.442 0.99-0.99 0.99-0.547 0-0.989-0.442-0.989-0.99v-2.812c0-0.547 0.442-0.989 0.989-0.989 0.548 0 0.99 0.442 0.99 0.989v2.812zm4.333 6.585c0 0.547-0.443 0.99-0.99 0.99s-0.989-0.443-0.989-0.99v-2.811c0-0.547 0.442-0.989 0.989-0.989s0.99 0.442 0.99 0.989v2.811zm0-6.585c0 0.548-0.443 0.99-0.99 0.99s-0.989-0.442-0.989-0.99v-2.812c0-0.547 0.442-0.989 0.989-0.989s0.99 0.442 0.99 0.989v2.812zm4.333 6.585c0 0.547-0.442 0.99-0.989 0.99s-0.989-0.443-0.989-0.99v-2.811c0-0.547 0.442-0.989 0.989-0.989s0.989 0.442 0.989 0.989v2.811zm0-6.585c0 0.548-0.442 0.99-0.989 0.99s-0.989-0.442-0.989-0.99v-2.812c0-0.547 0.442-0.989 0.989-0.989s0.989 0.442 0.989 0.989v2.812z"/><path d="m24 10.187c-0.547 0-0.99-0.443-0.99-0.99v-8.207c0-0.547 0.443-0.99 0.99-0.99s0.99 0.443 0.99 0.99v8.208c0 0.546-0.443 0.989-0.99 0.989z"/><path d="m23.217 4.366v-1.616c0.597 0 1.081-0.393 1.081-0.88 0-0.486-0.483-0.879-1.081-0.879h-5.407c-0.598 0-1.081 0.393-1.081 0.879v3.377c0 0.486 0.482 0.879 1.081 0.879h5.408c0.597 0 1.081-0.393 1.081-0.879-0.001-0.488-0.485-0.881-1.082-0.881z"/></svg>
